<?xml version="1.0" encoding="UTF-8" standalone="no"?>
<svg width="48px" height="42px" viewBox="0 0 48 42" version="1.1" xmlns="http://www.w3.org/2000/svg" xmlns:xlink="http://www.w3.org/1999/xlink">
    <!-- Generator: sketchtool 39.1 (31720) - http://www.bohemiancoding.com/sketch -->
    <title>3B11A669-FEC1-49CD-944F-B53B20FDE0AE</title>
    <desc>Created with sketchtool.</desc>
    <defs></defs>
    <g id="Webshop" stroke="none" stroke-width="1" fill="none" fill-rule="evenodd" stroke-linecap="round" stroke-linejoin="round">
        <g id="Cart" transform="translate(-256.000000, -262.000000)" stroke="#231F1F" stroke-width="1.56862745">
            <g id="Big-Cart-icon" transform="translate(257.000000, 263.000000)">
                <path d="M33.5617854,36.4887389 C33.5617854,38.2241366 32.1631175,39.6297302 30.4397588,39.6297302 C28.7164002,39.6297302 27.3177323,38.2241366 27.3177323,36.4887389 C27.3177323,34.7549117 28.7164002,33.3477476 30.4397588,33.3477476 C32.1631175,33.3477476 33.5617854,34.7549117 33.5617854,36.4887389 L33.5617854,36.4887389 Z" id="Stroke-2279"></path>
                <path d="M10.9270929,36.4887389 C10.9270929,38.2241366 9.52842502,39.6297302 7.80506636,39.6297302 C6.08170771,39.6297302 4.68303982,38.2241366 4.68303982,36.4887389 C4.68303982,34.7549117 6.08170771,33.3477476 7.80506636,33.3477476 C9.52842502,33.3477476 10.9270929,34.7549117 10.9270929,36.4887389 L10.9270929,36.4887389 Z" id="Stroke-2280"></path>
                <polyline id="Stroke-2281" points="45.2693849 0.367338932 42.3167283 0.367338932 38.3806333 30.2067563 0 30.2067563"></polyline>
                <polygon id="Stroke-2282" points="20.2931725 17.6429481 1.56101327 17.6429481 1.56101327 25.4954264 20.2931725 25.4954264"></polygon>
                <polygon id="Stroke-2283" points="15.6101327 11.3609655 4.68303982 11.3609655 4.68303982 17.6429481 15.6101327 17.6429481"></polygon>
                <polygon id="Stroke-2284" points="32.7812787 3.50848728 20.2931725 3.50848728 20.2931725 25.4954264 32.7812787 25.4954264"></polygon>
            </g>
        </g>
    </g>
</svg>