<?xml version="1.0" encoding="UTF-8" standalone="no"?>
<svg width="25px" height="21px" viewBox="0 0 25 21" version="1.1" xmlns="http://www.w3.org/2000/svg" xmlns:xlink="http://www.w3.org/1999/xlink">
    <!-- Generator: sketchtool 39.1 (31720) - http://www.bohemiancoding.com/sketch -->
    <title>94255050-B539-434A-806B-295476BA1DE5</title>
    <desc>Created with sketchtool.</desc>
    <defs></defs>
    <g id="Symbols" stroke="none" stroke-width="1" fill="none" fill-rule="evenodd">
        <g id="Back-Menu-Copy-2" transform="translate(-1165.000000, -62.000000)">
            <g id="Cart-full-black" transform="translate(1166.000000, 62.000000)">
                <path d="M6.00867679,19.1948806 C6.00867679,20.0881017 5.29124078,20.8123023 4.40636298,20.8123023 C3.52148518,20.8123023 2.80404917,20.0881017 2.80404917,19.1948806 C2.80404917,18.3016595 3.52148518,17.5774589 4.40636298,17.5774589 C5.29124078,17.5774589 6.00867679,18.3016595 6.00867679,19.1948806 L6.00867679,19.1948806 Z" id="Stroke-2339" fill="#000000"></path>
                <path d="M16.824295,19.1948806 C16.824295,20.0881017 16.106859,20.8123023 15.2219812,20.8123023 C14.3371034,20.8123023 13.6196674,20.0881017 13.6196674,19.1948806 C13.6196674,18.3016595 14.3371034,17.5774589 15.2219812,17.5774589 C16.106859,17.5774589 16.824295,18.3016595 16.824295,19.1948806 L16.824295,19.1948806 Z" id="Stroke-2340" fill="#000000"></path>
                <polyline id="Stroke-2341" stroke="#000000" stroke-width="0.8" stroke-linecap="round" stroke-linejoin="round" points="23.2335503 0.594531409 19.6980448 0.594531409 15.6225597 17.5774589 4.40636298 17.5774589"></polyline>
                <polyline id="Stroke-2342" stroke="#FFFFFF" stroke-width="0.8" stroke-linecap="round" stroke-linejoin="round" fill="#000000" points="16.0231381 15.9600373 3.03037599 15.9600373 0 6.25550726 18.3396833 6.25550726"></polyline>
            </g>
        </g>
    </g>
</svg>