<?xml version="1.0" encoding="UTF-8" standalone="no"?>
<svg width="40px" height="37px" viewBox="0 0 40 37" version="1.1" xmlns="http://www.w3.org/2000/svg" xmlns:xlink="http://www.w3.org/1999/xlink">
    <!-- Generator: sketchtool 39.1 (31720) - http://www.bohemiancoding.com/sketch -->
    <title>D6E726C9-B027-4289-871E-15159469E7E6</title>
    <desc>Created with sketchtool.</desc>
    <defs></defs>
    <g id="Symbols" stroke="none" stroke-width="1" fill="none" fill-rule="evenodd">
        <g id="Back-Menu-Copy-2" transform="translate(-252.000000, -57.000000)" fill="#000000">
            <path d="M291.480793,70.9181933 L291.484792,59.5905806 C291.485117,58.1600567 290.326037,57.0002163 288.896402,57.0002163 L263.398496,57 C262.711674,57 262.053065,57.2730627 261.567728,57.7591683 L252.779999,66.557734 C252.295851,67.0425419 252.023457,67.7000552 252.022808,68.3855776 L252.000001,91.0081435 C251.998812,92.4387756 253.156918,93.5990486 254.586554,93.6003463 L279.394395,93.6167841 C280.081001,93.6175411 280.739934,93.3444785 281.225595,92.8586973 L290.718414,83.3671472 C291.204075,82.8820149 291.477118,82.2237446 291.477118,81.5370326 L291.480793,70.9181933 L291.480793,70.9181933 Z M286.650449,60.9284255 L280.155044,67.4268843 L273.978513,67.4268843 L273.978513,67.3904399 L280.418574,60.9284255 L286.650449,60.9284255 L286.650449,60.9284255 Z M264.34593,60.9284255 L274.138814,60.9284255 L269.695767,65.3506348 L266.369968,65.3487964 L263.669161,68.0540093 L257.228883,68.0540093 L264.34593,60.9284255 L264.34593,60.9284255 Z M256.233456,78.6506791 L260.646561,78.6506791 L260.646561,89.6744081 L256.233456,89.6744081 L256.233456,78.6506791 Z M262.357887,89.1260118 L262.357887,82.7512692 L265.113281,79.9954451 L265.113281,74.1906195 L256.254426,74.1906195 L256.254426,69.7662473 L269.553085,69.7663555 L269.553085,81.9327301 L262.357887,89.1260118 L262.357887,89.1260118 Z M272.724852,85.2470079 L273.993321,85.2470079 L273.97981,69.1389061 L278.40113,69.1389061 L278.40113,89.6894401 L268.285048,89.6894401 L272.724852,85.2470079 L272.724852,85.2470079 Z M287.240312,74.1830495 L287.242798,81.0425999 L280.112239,88.1725094 L280.112239,82.6708104 L282.872822,79.9107687 L282.872822,78.5939037 L280.112239,78.5931467 L280.112239,72.5155828 L282.809696,69.8093966 L282.809696,67.1923208 L287.2495,62.7502131 L287.2495,71.7161851 L284.802927,74.1846716 L287.240312,74.1830495 L287.240312,74.1830495 Z" id="Fill-1-Copy-2"></path>
        </g>
    </g>
</svg>